<svg preserveAspectRatio="none" width="100%" height="100%" overflow="visible" style="display: block;" viewBox="0 0 21 16" fill="none" xmlns="http://www.w3.org/2000/svg">
<g id="Group">
<path id="Vector" d="M19.6198 6.712C20.0938 7.332 20.0938 8.169 19.6198 8.788C18.1268 10.737 14.5448 14.75 10.3628 14.75C6.1808 14.75 2.5988 10.737 1.1058 8.788C0.875187 8.49113 0.75 8.12592 0.75 7.75C0.75 7.37408 0.875187 7.00887 1.1058 6.712C2.5988 4.763 6.1808 0.75 10.3628 0.75C14.5448 0.75 18.1268 4.763 19.6198 6.712V6.712Z" stroke="var(--stroke-0, black)" stroke-width="1.5" stroke-linecap="round" stroke-linejoin="round"/>
<path id="Vector_2" d="M10.3628 10.75C12.0197 10.75 13.3628 9.40685 13.3628 7.75C13.3628 6.09315 12.0197 4.75 10.3628 4.75C8.70595 4.75 7.3628 6.09315 7.3628 7.75C7.3628 9.40685 8.70595 10.75 10.3628 10.75Z" stroke="var(--stroke-0, black)" stroke-width="1.5" stroke-linecap="round" stroke-linejoin="round"/>
</g>
</svg>
