<svg preserveAspectRatio="none" width="100%" height="100%" overflow="visible" style="display: block;" viewBox="0 0 34 28" fill="none" xmlns="http://www.w3.org/2000/svg">
<path id="Vector" d="M7.4 27V10.75C7.4 8.16414 8.41143 5.68419 10.2118 3.85571C12.0121 2.02723 14.4539 1 17 1C19.5461 1 21.9879 2.02723 23.7882 3.85571C25.5886 5.68419 26.6 8.16414 26.6 10.75V27M1 16.5431C1 13.207 4.2 12.375 7.4 12.375V27C5.70261 27 4.07475 26.3152 2.87452 25.0962C1.67428 23.8772 1 22.2239 1 20.5V16.5431ZM33 16.5431C33 13.207 29.8 12.375 26.6 12.375V27C28.2974 27 29.9252 26.3152 31.1255 25.0962C32.3257 23.8772 33 22.2239 33 20.5V16.5431Z" stroke="var(--stroke-0, #FAFAFA)" stroke-width="2" stroke-linecap="round" stroke-linejoin="round"/>
</svg>
