<svg preserveAspectRatio="none" width="100%" height="100%" overflow="visible" style="display: block;" viewBox="0 0 9 17" fill="none" xmlns="http://www.w3.org/2000/svg">
<path id="Vector" opacity="0.25" d="M8.33333 1.64204e-05C8.08422 -0.00189715 7.83325 0.164077 7.83325 0.164077C7.83325 0.164077 7.24678 0.372133 7.13831 0.606013L5.28661 4.52041L1.1432 5.14789C0.896751 5.18492 0.665169 5.29319 0.474681 5.46041C0.284193 5.62764 0.142411 5.84716 0.0653917 6.0941C-0.0116278 6.34104 -0.0208072 6.60553 0.0388934 6.85763C0.098594 7.10973 0.224789 7.33936 0.403186 7.52051L3.40324 10.5676L2.6949 14.8713C2.65276 15.1269 2.68003 15.3898 2.77362 15.6301C2.86721 15.8704 3.0234 16.0787 3.22452 16.2313C3.42564 16.3839 3.66368 16.4748 3.91174 16.4937C4.15981 16.5126 4.40799 16.4588 4.62826 16.3383L8.33333 14.3064V1.64204e-05Z" fill="var(--fill-0, black)"/>
</svg>
