<svg preserveAspectRatio="none" width="100%" height="100%" overflow="visible" style="display: block;" viewBox="0 0 3 4" fill="none" xmlns="http://www.w3.org/2000/svg">
<path id="Vector 4" d="M1.66489 0.500008C1.66303 0.543719 1.64532 0.58643 1.63587 0.628969C1.63084 0.651589 1.62771 0.675291 1.61975 0.697134C1.61347 0.714365 1.60261 0.72947 1.59948 0.747797C1.59596 0.768468 1.58569 0.783763 1.58106 0.803526C1.57664 0.822414 1.57839 0.841425 1.57692 0.860637C1.57055 0.943438 1.57369 1.02717 1.57369 1.11027C1.57369 1.12813 1.57612 1.14842 1.57277 1.166C1.56824 1.18979 1.55679 1.20921 1.54882 1.23186C1.53284 1.27727 1.48917 1.31584 1.47927 1.36312C1.46346 1.43867 1.43198 1.51142 1.39775 1.58189C1.37578 1.62712 1.36641 1.67991 1.34156 1.72375C1.31078 1.77807 1.28693 1.84462 1.24047 1.88864C1.2176 1.9103 1.20551 1.94734 1.1852 1.97154C1.16691 1.99333 1.14343 2.00988 1.12463 2.03118C1.11677 2.0401 1.11173 2.05114 1.10368 2.06043C1.09623 2.06902 1.09404 2.08241 1.09308 2.09336C1.09188 2.10721 1.08498 2.11179 1.08111 2.12468C1.07166 2.15618 1.07386 2.18468 1.05394 2.2138C1.03869 2.23609 1.02743 2.26758 1.00788 2.28611C0.982505 2.31015 0.973757 2.34855 0.948695 2.375C0.931865 2.39277 0.927372 2.41858 0.91254 2.4381C0.893214 2.46353 0.884988 2.49388 0.86464 2.51916C0.832683 2.55886 0.796171 2.59971 0.756175 2.63154C0.747577 2.63838 0.729759 2.65964 0.717717 2.65964C0.693163 2.65964 0.674711 2.60175 0.667975 2.58456C0.652359 2.54471 0.647892 2.502 0.641032 2.45998C0.637991 2.44135 0.622182 2.40491 0.63919 2.3879C0.660443 2.36664 0.675746 2.34202 0.695149 2.32019C0.71295 2.30017 0.738994 2.29006 0.755484 2.26976C0.775342 2.24532 0.781755 2.22021 0.796015 2.19169C0.804063 2.1756 0.803509 2.1574 0.811214 2.14103C0.819716 2.12296 0.832108 2.10083 0.835854 2.08116C0.839112 2.06405 0.849566 2.03927 0.858422 2.02451C0.873987 1.99856 0.891843 1.97378 0.905401 1.94667C0.910999 1.93547 0.908645 1.92431 0.911388 1.91259C0.914883 1.89765 0.92473 1.88463 0.92889 1.86929C0.946239 1.80532 0.986599 1.75173 1.00488 1.68875C1.01207 1.66401 1.02701 1.64471 1.0339 1.61828C1.03831 1.60137 1.05049 1.58953 1.05463 1.57222C1.0572 1.56147 1.06098 1.54859 1.06568 1.5386C1.07614 1.51638 1.07501 1.49005 1.0795 1.46583C1.08323 1.44567 1.0905 1.4257 1.09608 1.40596C1.10198 1.38504 1.10215 1.36349 1.10759 1.3424C1.11366 1.3189 1.11093 1.29388 1.1145 1.27009C1.11747 1.2503 1.12641 1.21543 1.13845 1.19962C1.16066 1.17047 1.16088 1.11676 1.17391 1.08263C1.18737 1.04742 1.18981 1.00887 1.20385 0.973478C1.21188 0.953245 1.21304 0.931909 1.22135 0.911761C1.22888 0.89351 1.23997 0.866726 1.23793 0.846359C1.23778 0.84484 1.20901 0.888265 1.20339 0.897022C1.19541 0.909461 1.19293 0.924394 1.18635 0.937553C1.17936 0.951537 1.16918 0.96358 1.16148 0.977162C1.14019 1.01471 1.12096 1.0562 1.09562 1.09092C1.08384 1.10706 1.0702 1.131 1.06775 1.15057C1.06502 1.17243 1.06242 1.1955 1.05923 1.21781C1.05268 1.26366 1.02653 1.30682 1.02653 1.35414C1.02653 1.38423 1.02653 1.41432 1.02653 1.44441C1.02653 1.46732 1.01712 1.48037 1.01387 1.50152C1.01207 1.51322 1.00761 1.52433 1.00581 1.53607C1.0031 1.55367 0.988389 1.56561 0.983007 1.58236C0.978955 1.59496 0.980297 1.61307 0.972414 1.62358C0.964434 1.63422 0.962 1.64391 0.958136 1.65628C0.948233 1.68797 0.944091 1.72268 0.929811 1.75254C0.913849 1.78591 0.891141 1.81315 0.881451 1.84949C0.877486 1.86436 0.870253 1.87288 0.863258 1.88633C0.856892 1.89858 0.857589 1.91252 0.851744 1.92479C0.841332 1.94666 0.826281 1.9645 0.823649 1.9895C0.822323 2.0021 0.818311 2.01211 0.815128 2.02404C0.806641 2.05587 0.795719 2.08769 0.785652 2.11915C0.771103 2.16462 0.74041 2.20435 0.736601 2.25387C0.733621 2.29261 0.73005 2.33136 0.726008 2.37017C0.722191 2.4068 0.704711 2.43646 0.697452 2.47195C0.694059 2.48854 0.691253 2.50298 0.680641 2.51663C0.67209 2.52762 0.670775 2.54398 0.661758 2.55601C0.631666 2.59613 0.58918 2.61827 0.549147 2.64674C0.529112 2.66099 0.505062 2.6804 0.500096 2.70523" stroke="var(--stroke-0, white)" stroke-linecap="round"/>
</svg>
