<svg preserveAspectRatio="none" width="100%" height="100%" overflow="visible" style="display: block;" viewBox="0 0 3 5" fill="none" xmlns="http://www.w3.org/2000/svg">
<path id="Vector 2" d="M1.76215 0.50011C1.69367 0.637069 1.62699 0.770593 1.55674 0.904709C1.51625 0.982004 1.52281 1.07922 1.48049 1.15681C1.43575 1.23883 1.37377 1.26174 1.37 1.37467C1.36769 1.44399 1.37 1.51381 1.37 1.58319C1.37 1.94077 1.40172 2.30443 1.23151 2.61648C1.18953 2.69343 1.1821 2.80348 1.15837 2.88725C1.13713 2.9622 1.06995 3.04146 1.06189 3.11133C1.04914 3.2218 0.923877 3.39107 0.881372 3.50037C0.839937 3.60692 0.854567 3.62209 0.781778 3.71201C0.70915 3.80173 0.631642 3.89523 0.563916 3.98901C0.483263 4.10068 0.50167 4.28897 0.50167 4.42162" stroke="var(--stroke-0, white)" stroke-linecap="round"/>
</svg>
