<svg preserveAspectRatio="none" width="100%" height="100%" overflow="visible" style="display: block;" viewBox="0 0 31 34" fill="none" xmlns="http://www.w3.org/2000/svg">
<g id="Group">
<path id="Vector" d="M15.8864 26.4636H16.3864C17.0107 26.4636 17.6099 26.2156 18.0514 25.7742C18.4929 25.3327 18.7408 24.7335 18.7409 24.1091C18.7409 23.4847 18.4929 22.8856 18.0514 22.4441C17.6098 22.0025 17.0108 21.7546 16.3864 21.7546H15.8864V26.4636ZM14.5319 16.1912C13.9074 16.1912 13.3084 16.4391 12.8668 16.8806C12.4254 17.3221 12.1774 17.9213 12.1774 18.5456C12.1775 19.1698 12.4256 19.7683 12.8668 20.2097C13.3084 20.6513 13.9074 20.9001 14.5319 20.9001H15.0319V16.1912H14.5319ZM15.0319 21.7546H14.5319C13.6808 21.7546 12.8641 21.416 12.2623 20.8142C11.6608 20.2125 11.323 19.3964 11.3229 18.5456C11.3229 17.6947 11.6607 16.8779 12.2623 16.2761C12.8641 15.6743 13.6808 15.3367 14.5319 15.3367H15.0319V14.4089H15.8864V15.3367H16.3864C17.0501 15.3367 17.6979 15.5423 18.2399 15.9255C18.7138 16.2607 19.0869 16.717 19.3209 17.2449L19.4127 17.4763C19.4312 17.529 19.4391 17.5847 19.4362 17.6404C19.4332 17.6964 19.4194 17.7519 19.3951 17.8025C19.371 17.853 19.3372 17.8988 19.2955 17.9363C19.2538 17.9737 19.2048 18.0026 19.152 18.0212C19.0991 18.0399 19.043 18.0477 18.9869 18.0447C18.9311 18.0417 18.8763 18.0277 18.8258 18.0037C18.7237 17.9548 18.6448 17.8672 18.6071 17.7605C18.4447 17.3015 18.1434 16.9038 17.7457 16.6228C17.3481 16.3418 16.8733 16.191 16.3864 16.1912H15.8864V20.9001H16.3864C17.2375 20.9001 18.0541 21.2378 18.6559 21.8396C19.2576 22.4414 19.5953 23.2581 19.5953 24.1091C19.5953 24.96 19.2575 25.776 18.6559 26.3777C18.0541 26.9795 17.2375 27.3181 16.3864 27.3181H15.8864V28.2449H15.0319V27.3181H14.5319C13.8681 27.3181 13.2203 27.1124 12.6784 26.7292C12.1365 26.3461 11.7268 25.8041 11.5055 25.1785L11.5006 25.1648C11.4801 25.1116 11.4705 25.0548 11.4723 24.9978C11.4741 24.9408 11.4875 24.8846 11.5114 24.8328C11.5353 24.7809 11.5697 24.7345 11.6119 24.696C11.6542 24.6575 11.7036 24.6272 11.7575 24.6081C11.8112 24.5892 11.8685 24.5813 11.9254 24.5847C11.9824 24.5882 12.0384 24.6033 12.0895 24.6287C12.1405 24.654 12.1861 24.689 12.2233 24.7322C12.2606 24.7755 12.2888 24.8262 12.3063 24.8806L12.3082 24.8874L12.3112 24.8943C12.6357 25.809 13.507 26.4636 14.5319 26.4636H15.0319V21.7546Z" fill="var(--fill-0, #FAFAFA)" stroke="var(--stroke-0, #FAFAFA)"/>
<path id="Vector_2" d="M15.4951 0.5C19.3972 0.5 22.9568 1.73333 25.1758 2.81055L25.3037 2.87305C25.743 3.09042 26.1228 3.29902 26.4355 3.48535L23.3047 8.06348L23.0732 8.40137L23.3604 8.69531C25.2986 10.6769 27.1288 13.2074 28.4395 15.8828C29.7524 18.5629 30.5273 21.3533 30.4004 23.8643C30.2745 26.3544 29.2646 28.5771 26.9756 30.1943C24.6644 31.8271 20.997 32.8789 15.4951 32.8789C9.99214 32.8789 6.31361 31.8453 3.9873 30.2344C1.68387 28.6392 0.657747 26.4451 0.516602 23.9766C0.374283 21.4861 1.13465 18.7059 2.44238 16.0107C3.74774 13.3206 5.58165 10.75 7.54004 8.68945L7.81836 8.39746L7.5918 8.06445L4.48145 3.4873C4.63865 3.39471 4.81278 3.29804 5.00195 3.19727L5.00391 3.19629C5.19438 3.09386 5.39974 2.98834 5.62012 2.88086L5.67871 2.85254C7.91532 1.76648 11.5431 0.500047 15.4951 0.5ZM22.416 9.38867C18.0673 11.0704 12.8293 11.0705 8.48047 9.39062L8.30078 9.85645L7.93457 9.5166C6.11667 11.476 4.42467 13.8806 3.20996 16.3838C2.01882 18.8395 1.32763 21.3053 1.35449 23.4941L1.36914 23.9277C1.49658 26.1623 2.40833 28.1022 4.47168 29.5322C6.59814 31.0042 10.0787 32.0244 15.4941 32.0244C20.9055 32.0244 24.3716 30.9861 26.4805 29.4961C28.5302 28.0473 29.4315 26.0814 29.5459 23.8203C29.6628 21.5037 28.9467 18.8603 27.6709 16.2578L27.6699 16.2559L27.4355 15.7949C26.2451 13.5019 24.7383 11.3864 22.959 9.51074L22.7285 9.26758L22.416 9.38867ZM24.2217 3.77148C21.9523 3.93491 19.3186 4.42031 16.7227 5.11035L15.6143 5.41797C13.7542 5.95531 11.6755 5.9176 9.68848 5.59082L9.29297 5.52148C8.76369 5.42336 8.23782 5.30715 7.7168 5.17188L6.43164 4.83789L7.17773 5.93652L8.95801 8.55762L9.0498 8.69336L9.2041 8.74805C13.1282 10.145 17.7587 10.1451 21.6836 8.75L21.5156 8.27832L21.9287 8.56055L24.6709 4.55273L25.2559 3.69727L24.2217 3.77148ZM15.4941 1.35449C12.2125 1.35454 9.16527 2.26845 7.03906 3.1709L7.23438 3.63086L7.0918 4.11035C7.84852 4.33548 8.64087 4.53153 9.44629 4.68066H9.44727C11.4822 5.05546 13.5672 5.12064 15.376 4.59668L15.377 4.5957C17.3452 4.02234 19.3471 3.57202 21.3711 3.24609L21.4355 2.27344C19.6941 1.74913 17.6491 1.35449 15.4941 1.35449Z" fill="var(--fill-0, #FAFAFA)" stroke="var(--stroke-0, #FAFAFA)"/>
</g>
</svg>
