<svg preserveAspectRatio="none" width="100%" height="100%" overflow="visible" style="display: block;" viewBox="0 0 35 32" fill="none" xmlns="http://www.w3.org/2000/svg">
<g id="Group">
<path id="Vector" d="M31.4824 1H24.8291L25.6624 9.33333C25.6624 9.33333 27.3291 11 29.8291 11C31.1414 11.0017 32.4092 10.524 33.3941 9.65667C33.4982 9.55938 33.5758 9.43716 33.6195 9.30156C33.6633 9.16596 33.6717 9.02145 33.6441 8.88167L32.4674 1.83333C32.4281 1.60049 32.3076 1.38909 32.1273 1.23656C31.947 1.08404 31.7186 1.00024 31.4824 1V1Z" stroke="var(--stroke-0, white)" stroke-width="2"/>
<path id="Vector_2" d="M24.8291 1L25.6624 9.33333C25.6624 9.33333 23.9958 11 21.4958 11C18.9958 11 17.3291 9.33333 17.3291 9.33333V1H24.8291Z" stroke="var(--stroke-0, #FAFAFA)" stroke-width="2"/>
<path id="Vector_3" d="M17.3291 1V9.33333C17.3291 9.33333 15.6624 11 13.1624 11C10.6624 11 8.99576 9.33333 8.99576 9.33333L9.82909 1H17.3291Z" stroke="var(--stroke-0, #FAFAFA)" stroke-width="2"/>
<path id="Vector_4" d="M9.82909 1H3.17742C2.94075 0.999912 2.71171 1.08377 2.53105 1.23666C2.35039 1.38955 2.22981 1.60157 2.19076 1.835L1.01576 8.88333C0.988295 9.02311 0.996832 9.16758 1.04057 9.30315C1.0843 9.43873 1.16179 9.56095 1.26576 9.65833C1.81242 10.1417 3.03409 11.0017 4.82909 11.0017C7.32909 11.0017 8.99576 9.335 8.99576 9.335L9.82909 1.00167V1Z" stroke="var(--stroke-0, #FAFAFA)" stroke-width="2"/>
<path id="Vector_5" d="M2.34076 11V27.6667C2.34076 28.5507 2.69195 29.3986 3.31707 30.0237C3.94219 30.6488 4.79004 31 5.67409 31H29.0074C29.8915 31 30.7393 30.6488 31.3644 30.0237C31.9896 29.3986 32.3408 28.5507 32.3408 27.6667V11" stroke="var(--stroke-0, #FAFAFA)" stroke-width="2"/>
<path id="Vector_6" d="M22.0624 31V21C22.0624 20.1159 21.7112 19.2681 21.0861 18.643C20.461 18.0179 19.6131 17.6667 18.7291 17.6667H15.3958C14.5117 17.6667 13.6639 18.0179 13.0387 18.643C12.4136 19.2681 12.0624 20.1159 12.0624 21V31" stroke="var(--stroke-0, #FAFAFA)" stroke-width="2" stroke-miterlimit="16"/>
</g>
</svg>
