<svg preserveAspectRatio="none" width="100%" height="100%" overflow="visible" style="display: block;" viewBox="0 0 15 15" fill="none" xmlns="http://www.w3.org/2000/svg">
<path id="Vector" d="M13.9461 6.83185C15.0168 6.02196 14.444 4.31529 13.1015 4.31529H10.6723C10.0584 4.31529 9.51614 3.91532 9.33481 3.3288L8.61066 0.986488C8.20402 -0.328829 6.34223 -0.32883 5.93559 0.986488L5.21144 3.3288C5.03011 3.91532 4.48782 4.31529 3.8739 4.31529H1.40273C0.0645435 4.31529 -0.510957 6.01285 0.551343 6.82665L2.66782 8.44804C3.13197 8.80361 3.32627 9.4102 3.15509 9.96928L2.38609 12.4808C1.98728 13.7833 3.49479 14.8305 4.57613 14.0021L6.42173 12.5882C6.92409 12.2034 7.62216 12.2034 8.12452 12.5882L9.95382 13.9896C11.0367 14.8192 12.5457 13.768 12.1427 12.4647L11.3631 9.94281C11.189 9.37987 11.3861 8.7682 11.8561 8.41274L13.9461 6.83185Z" fill="var(--fill-0, #FFAD33)"/>
</svg>
