<svg preserveAspectRatio="none" width="100%" height="100%" overflow="visible" style="display: block;" viewBox="0 0 22 22" fill="none" xmlns="http://www.w3.org/2000/svg">
<path id="Vector" d="M9.30472 4.99107L5.92172 1.08607C5.53172 0.636068 4.81672 0.638068 4.36372 1.09207L1.58172 3.87907C0.753722 4.70807 0.516721 5.93907 0.995721 6.92607C3.85734 12.851 8.63577 17.6362 14.5567 20.5061C15.5427 20.9851 16.7727 20.7481 17.6007 19.9191L20.4087 17.1061C20.8637 16.6511 20.8647 15.9321 20.4107 15.5421L16.4907 12.1771C16.0807 11.8251 15.4437 11.8711 15.0327 12.2831L13.6687 13.6491C13.5989 13.7223 13.507 13.7705 13.4071 13.7864C13.3072 13.8023 13.2048 13.785 13.1157 13.7371C10.8862 12.4532 9.03671 10.6013 7.75572 8.37007C7.70775 8.28082 7.69038 8.1783 7.70627 8.07822C7.72217 7.97815 7.77045 7.88606 7.84372 7.81607L9.20372 6.45507C9.61572 6.04107 9.66072 5.40107 9.30472 4.99007V4.99107Z" stroke="var(--stroke-0, black)" stroke-width="1.5" stroke-linecap="round" stroke-linejoin="round"/>
</svg>
