<svg preserveAspectRatio="none" width="100%" height="100%" overflow="visible" style="display: block;" viewBox="0 0 40 40" fill="none" xmlns="http://www.w3.org/2000/svg">
<g id="shield-tick">
<path id="Vector" d="M19.9831 2.5875C21.0046 2.5875 22.0041 2.73673 22.7575 3.01816L31.0749 6.13535H31.0758C33.2954 6.96212 35.0505 9.50771 35.0505 11.8668V24.2496C35.0505 25.3368 34.7062 26.5896 34.1237 27.7486C33.5777 28.8349 32.8403 29.8025 32.0309 30.4557L31.8678 30.5826L24.7008 35.9322L24.695 35.9371C23.4123 36.9262 21.7237 37.4332 19.9997 37.4332C18.277 37.4331 16.5846 36.9264 15.2643 35.9479H15.2633L8.09928 30.5992C7.22658 29.9485 6.42524 28.9209 5.84245 27.7594C5.2596 26.5977 4.91667 25.3448 4.91667 24.2662V11.8668C4.91667 9.50759 6.67161 6.96199 8.89128 6.13535H8.89225L17.2087 3.01816C17.9621 2.73665 18.9614 2.58753 19.9831 2.5875ZM20.0007 4.08555C19.2021 4.08773 18.3751 4.19497 17.7419 4.43125L17.7409 4.43223L9.42448 7.54844H9.4235C8.596 7.86003 7.85477 8.52255 7.32389 9.29062C6.79281 10.059 6.43327 10.9899 6.43327 11.8834V24.2662C6.43327 25.1607 6.74385 26.1894 7.20085 27.1012C7.65773 28.0127 8.29309 28.8727 9.00065 29.401L16.1676 34.7506C17.2295 35.5445 18.6281 35.9253 20.0016 35.9254C21.3755 35.9254 22.7779 35.5443 23.8473 34.7516L23.8493 34.7506L31.0153 29.401L31.0163 29.4C31.731 28.8639 32.3666 28.005 32.8219 27.0943C33.2773 26.1837 33.5837 25.1597 33.5837 24.2662V11.8668C33.5837 10.9808 33.2232 10.054 32.693 9.28672C32.1625 8.51917 31.422 7.85396 30.5973 7.53379L30.5924 7.53184L22.2751 4.41465L22.2663 4.41172C21.6281 4.18652 20.8001 4.08337 20.0007 4.08555Z" fill="var(--fill-0, #FAFAFA)" stroke="var(--stroke-0, #FAFAFA)"/>
<path id="Vector_2" d="M24.4039 14.77C24.692 14.4822 25.1755 14.482 25.4635 14.77C25.7514 15.058 25.7512 15.5415 25.4635 15.8296L18.2965 22.9965C18.1452 23.1478 17.9574 23.2163 17.7662 23.2163C17.5752 23.2162 17.3881 23.1477 17.2369 22.9965L14.5533 20.313C14.2655 20.0249 14.2653 19.5414 14.5533 19.2534C14.8413 18.9654 15.3248 18.9655 15.6129 19.2534L17.7662 21.4067L18.1207 21.0532L24.4039 14.77Z" fill="var(--fill-0, #FAFAFA)" stroke="var(--stroke-0, #FAFAFA)"/>
<path id="Vector_3" opacity="0" d="M39.5 0.5V39.5H0.5V0.5H39.5Z" stroke="var(--stroke-0, #FAFAFA)"/>
</g>
</svg>
