<svg preserveAspectRatio="none" width="100%" height="100%" overflow="visible" style="display: block;" viewBox="0 0 28 24" fill="none" xmlns="http://www.w3.org/2000/svg">
<g id="Group">
<g id="Vector">
</g>
<path id="Vector_2" d="M19.1211 4.44336C19.9979 4.09254 20.9592 4.00852 21.8838 4.20117C22.8082 4.39388 23.6557 4.85462 24.3193 5.52637L24.3486 5.55664H24.3906C24.7296 5.55426 25.0806 5.59738 25.498 5.53809C25.882 5.48352 26.3278 5.34203 26.915 5.00977C26.6091 6.49447 26.4324 7.16729 25.7646 8.08301L25.7451 8.10938V8.14258C25.7451 11.9414 24.5781 14.7564 22.8262 16.7393C21.0729 18.7234 18.7275 19.8816 16.3623 20.3535C14.7452 20.6761 12.754 20.5731 10.9961 20.2109C10.1179 20.03 9.30096 19.7842 8.62012 19.4971C8.03699 19.2511 7.56006 18.9759 7.22949 18.6885C7.6606 18.6463 8.41195 18.553 9.24414 18.3594C10.2439 18.1267 11.3719 17.749 12.2031 17.1406L12.3193 17.0557L12.1992 16.9766C11.5077 16.5207 9.81165 15.4984 8.73145 13.5166C7.66701 11.5637 7.19288 8.66296 8.91406 4.42578C10.5793 6.34326 12.2727 7.66041 13.9951 8.36719C14.5763 8.60556 14.9423 8.72333 15.2314 8.79102C15.5195 8.85841 15.7322 8.8754 15.9922 8.91113L16.2871 8.95215L16.1074 8.77148C16.1323 7.84188 16.4255 6.93867 16.9541 6.17285C17.4906 5.3958 18.2444 4.79414 19.1211 4.44336ZM20.9053 5.90137C20.119 5.90124 19.3638 6.20994 18.8027 6.76074C18.3119 7.24267 18.0038 7.87627 17.9248 8.55371L17.9053 8.84668L17.877 10.4209C17.8756 10.4914 17.8592 10.5613 17.8291 10.625C17.799 10.6887 17.7556 10.7452 17.7021 10.791C17.6487 10.8368 17.5861 10.8716 17.5186 10.8916C17.4511 10.9115 17.3802 10.9166 17.3105 10.9072L15.749 10.6953C13.7175 10.4183 11.7663 9.48248 9.88965 7.91895L9.75781 7.80859L9.72754 7.97754C9.42573 9.64812 9.56793 11.0709 10.1475 12.3018C10.7267 13.532 11.7388 14.5607 13.1562 15.4521L14.9023 16.5498C14.9714 16.5932 15.0296 16.6529 15.0703 16.7236C15.111 16.7944 15.1339 16.8744 15.1367 16.9561C15.1395 17.0377 15.1217 17.1189 15.0859 17.1924C15.0501 17.2658 14.9967 17.3299 14.9307 17.3779L13.3389 18.541L13.1152 18.7041L13.3916 18.7207C14.3447 18.7801 15.2532 18.738 16.0098 18.5879C18.3887 18.1129 20.375 16.9789 21.7656 15.2207C23.1559 13.4627 23.9453 11.0883 23.9453 8.14258C23.9453 7.99705 23.8715 7.78499 23.7441 7.55762C23.6144 7.32598 23.4211 7.06491 23.167 6.82031C22.6584 6.33085 21.8999 5.90145 20.9053 5.90137Z" fill="var(--fill-0, black)" stroke="var(--stroke-0, white)" stroke-width="0.2"/>
</g>
</svg>
