<svg preserveAspectRatio="none" width="100%" height="100%" overflow="visible" style="display: block;" viewBox="0 0 14 18" fill="none" xmlns="http://www.w3.org/2000/svg">
<path id="Vector" d="M11.9205 3.19473C11.5911 2.62355 11.1125 2.15266 10.5361 1.83248C9.95957 1.5123 9.30683 1.35488 8.64773 1.37706H5.01136C4.04694 1.37706 3.12202 1.76007 2.44007 2.44182C1.75812 3.12358 1.375 4.04824 1.375 5.01239C1.375 5.97654 1.75812 6.9012 2.44007 7.58296C3.12202 8.26472 4.04694 8.64773 5.01136 8.64773H8.64773C9.61215 8.64773 10.5371 9.03074 11.219 9.71249C11.901 10.3943 12.2841 11.3189 12.2841 12.2831C12.2841 13.2472 11.901 14.1719 11.219 14.8536C10.5371 15.5354 9.61215 15.9184 8.64773 15.9184H5.01136C4.35226 15.9406 3.69952 15.7832 3.12303 15.463C2.54654 15.1428 2.068 14.6719 1.73864 14.1007" stroke="var(--stroke-0, black)" stroke-width="2.75" stroke-linecap="round" stroke-linejoin="round"/>
</svg>
