<svg preserveAspectRatio="none" width="100%" height="100%" overflow="visible" style="display: block;" viewBox="0 0 9 16" fill="none" xmlns="http://www.w3.org/2000/svg">
<path id="Vector" d="M8.33318 3.57286e-05C8.08408 -0.00179911 7.83956 0.0670714 7.62803 0.198649C7.41651 0.330226 7.24665 0.519112 7.13818 0.743369L5.28651 4.4967L1.14318 5.09837C0.896734 5.13388 0.665157 5.23769 0.474672 5.39803C0.284188 5.55838 0.142409 5.76886 0.0653905 6.00564C-0.0116275 6.24242 -0.0208068 6.49604 0.0388927 6.73776C0.0985921 6.97949 0.224785 7.19967 0.403179 7.37337L3.40318 10.295L2.69485 14.4217C2.65271 14.6668 2.67998 14.9188 2.77357 15.1493C2.86716 15.3797 3.02334 15.5794 3.22446 15.7257C3.42558 15.8721 3.66361 15.9592 3.91167 15.9774C4.15973 15.9955 4.40791 15.9439 4.62818 15.8284L8.33318 13.88V3.57286e-05Z" fill="var(--fill-0, #FFAD33)"/>
</svg>
