<svg preserveAspectRatio="none" width="100%" height="100%" overflow="visible" style="display: block;" viewBox="0 0 29 29" fill="none" xmlns="http://www.w3.org/2000/svg">
<path id="Vector" d="M12.4063 6.65476L7.89563 1.44809C7.37563 0.848091 6.42229 0.850758 5.81829 1.45609L2.10896 5.17209C1.00496 6.27742 0.688962 7.91876 1.32763 9.23476C5.14312 17.1347 11.5144 23.5149 19.409 27.3414C20.7236 27.9801 22.3636 27.6641 23.4676 26.5588L27.2116 22.8081C27.8183 22.2014 27.8196 21.2428 27.2143 20.7228L21.9876 16.2361C21.441 15.7668 20.5916 15.8281 20.0436 16.3774L18.225 18.1988C18.1319 18.2963 18.0093 18.3607 17.8761 18.3819C17.7429 18.4031 17.6064 18.38 17.4876 18.3161C14.5149 16.6042 12.049 14.1351 10.341 11.1601C10.277 11.0411 10.2538 10.9044 10.275 10.771C10.2962 10.6375 10.3606 10.5147 10.4583 10.4214L12.2716 8.60676C12.821 8.05476 12.881 7.20142 12.4063 6.65342V6.65476Z" stroke="var(--stroke-0, black)" stroke-width="2" stroke-linecap="round" stroke-linejoin="round"/>
</svg>
